<svg id="Dashboard_button" data-name="Dashboard button" xmlns="http://www.w3.org/2000/svg" viewBox="0 0 586.39 277.31"><defs><style>.cls-1{fill:#231f20;}.cls-2{fill:none;stroke:#231f20;stroke-miterlimit:10;stroke-width:7px;}.cls-3{fill:#fff;}</style></defs><title>Preowned</title><circle class="cls-1" cx="528.88" cy="57.51" r="57.51"/><path class="cls-1" d="M7.68,180.19s18.1-40.6,182.68-35.66c40.37-19.59,53.21-35.66,98.2-45.53C360,80,519.34,134.18,527.74,136.85c12.89.27,44.44-4.39,44.44-4.39s1.5,1.91-.95,6.37a24.84,24.84,0,0,1-5.22,6.74l-16.56,5.23S574.22,135,565.6,136.3s-35.43,4.36-38.95,3.29S357.68,86.93,289.93,105s-68.85,39.5-99,42.79C41.69,146.18,7.68,180.19,7.68,180.19Z"/><path class="cls-1" d="M10.42,182.93c2.19,0,53.76-8.23,56.5-5.49s.7,4.94-15.36,14.81L19.2,197.2S43.89,190.62,55.41,184,10.42,182.93,10.42,182.93Z"/><path class="cls-1" d="M7.68,184l5.49,15.91S11,198.3,7.68,209.82s0,13.71,0,13.71h5.49S0,240,0,244.93s64.19,7.13,64.19,7.13v-8.23s-56.5,4.39-56.5-1.1S17.55,223,17.55,223c-5-9.3-6.25-11.41-1.1-21.94Z"/><path class="cls-1" d="M166.49,254c87.22-4.54,155.32-4.17,236.21-10.69,3.46-61.44,44.72-69.38,67-67.82-44.39,2-62.18,36.23-54.94,75.45C339,252,252.25,254.45,166.49,254Z"/><path class="cls-1" d="M514.58,241.24c1.65,0,38.95-4.39,48.28-9.33s14.81-19.75,14.81-19.75l-5.49-9.33s6.06-19.05,5.49-20.31-5.87-.44-11.52-2.73-8.78-18.1-8.78-18.1,6.64,13,12.68,15.56,12.55.57,12.55,2.55-6,21.67-6,21.67l6,14s-7.68,18.1-13.17,21.94S514.58,241.24,514.58,241.24Z"/><path class="cls-1" d="M235.7,146.4s185.72-7.11,195.37-11.54,12.49-9.18,9.32-9.77S344.68,103,300.53,111.77s-70.23,34.75-70.23,34.75l-13.05,1s34.71-30.89,78.54-40.21,145.5,14.34,148.61,16.43-.16,7.33-9.08,12.63C425.84,143.21,238,148.54,235.7,146.4Z"/><circle class="cls-2" cx="114.33" cy="230.1" r="43.7"/><circle class="cls-2" cx="466.51" cy="228.82" r="43.7"/><path class="cls-1" d="M562.31,157.37s13.47,10.07,12.93,14.76-1.57,4.69-1.57,4.69C573.62,174.25,571.75,167.09,562.31,157.37Z"/><circle class="cls-3" cx="528.94" cy="43.18" r="11.12"/><path class="cls-3" d="M506,83h45.79V72.33c0-17.19-45.79-17.19-45.79,0Z"/></svg>