<svg id="Dashboard_button" data-name="Dashboard button" xmlns="http://www.w3.org/2000/svg" viewBox="0 0 645 210.25"><defs><style>.cls-1{fill:#231f20;}.cls-2{fill:none;stroke:#231f20;stroke-miterlimit:10;stroke-width:6px;}</style></defs><title>Truck</title><path class="cls-1" d="M146.48,64.25s57.5-44,79.58-49S393.38,4.1,401.16,8.08s12.26,53.06,15.2,56.17,205-11.48,205-11.48S444.73,57,424.86,55.91C419.73,50.42,415.32,0,408.63,0S257.43-.33,224,10,146.48,64.25,146.48,64.25Z"/><path class="cls-1" d="M139.58,64.69S28.84,69,18.46,82.24s-10.38,41-10.38,41l-4.61,8.07,3.46,4.61L0,157.8,45.56,178,5.77,154.34l6.34-19.61-1.73-6.34S12.54,95.44,22.49,85.7,139.58,64.69,139.58,64.69Z"/><path class="cls-1" d="M51.33,121.46C85,96,146.48,112.31,148,178L448.62,167.6l-292.93.65C151,116.46,95.83,82.56,51.33,121.46Z"/><path class="cls-1" d="M167.26,70.7S383.41,65.81,387,57.44s-5.19-42.68-5.19-42.68S398,55.49,395.1,64.84,167.26,70.7,167.26,70.7Z"/><circle class="cls-2" cx="89.09" cy="165.45" r="41.8"/><circle class="cls-2" cx="502.53" cy="165.45" r="41.8"/><path class="cls-1" d="M624.89,52.09s4.31,4.49,1.76,9.1-2.44,3.69-5.26,9.51-6.82,55.33-2.52,57.79,16.16,1,21.48-.79c0,0-2.69,13.1-11.81,19.94-11.86,10.14-78.49,13-76,13s79.78,1.64,83.19-4.08,11-33.22,9-33.67-12.74,2.78-18-1.61-3.22-43.93,0-50.63,4.56-6.84,5-10.33S624.89,52.09,624.89,52.09Z"/><path class="cls-1" d="M616.45,64.69H594.7c-9.32,23.53,21.76,38.81,21.76,38.81s-28-26.78-14-32.8Z"/><path class="cls-1" d="M167.84,136.92,428,127.5c8.67-18.89,8.91-16.05,3.72,3.26Z"/></svg>