<svg id="Dashboard_button" data-name="Dashboard button" xmlns="http://www.w3.org/2000/svg" viewBox="0 0 582.6 182.35"><defs><style>.cls-1{fill:#231f20;}.cls-2{fill:none;stroke:#231f20;stroke-miterlimit:10;stroke-width:7px;}</style></defs><title>Car</title><path class="cls-1" d="M7.68,85.24s18.1-40.6,182.68-35.66C230.73,30,243.57,13.92,288.56,4,360-15,519.34,39.22,527.74,41.9c12.89.27,44.44-4.39,44.44-4.39s1.5,1.91-.95,6.37A24.84,24.84,0,0,1,566,50.62l-16.56,5.23S574.22,40,565.6,41.35s-35.43,4.36-38.95,3.29S357.68-8,289.93,10.08s-68.85,39.5-99,42.79C41.69,51.22,7.68,85.24,7.68,85.24Z"/><path class="cls-1" d="M10.42,88c2.19,0,53.76-8.23,56.5-5.49s.7,4.94-15.36,14.81L19.2,102.24s24.69-6.58,36.21-13.17S10.42,88,10.42,88Z"/><path class="cls-1" d="M7.68,89.08,13.17,105s-2.19-1.65-5.49,9.87,0,13.71,0,13.71h5.49S0,145,0,150s64.19,7.13,64.19,7.13v-8.23s-56.5,4.39-56.5-1.1S17.55,128,17.55,128c-5-9.3-6.25-11.41-1.1-21.94Z"/><path class="cls-1" d="M166.49,159c87.22-4.54,155.32-4.17,236.21-10.69,3.46-61.44,44.72-69.38,67-67.82-44.39,2-62.18,36.23-54.94,75.45C339,157.07,252.25,159.5,166.49,159Z"/><path class="cls-1" d="M514.58,146.29c1.65,0,38.95-4.39,48.28-9.33s14.81-19.75,14.81-19.75l-5.49-9.33s6.06-19.05,5.49-20.31-5.87-.44-11.52-2.73-8.78-18.1-8.78-18.1S564,79.75,570,82.3s12.55.57,12.55,2.55-6,21.67-6,21.67l6,14s-7.68,18.1-13.17,21.94S514.58,146.29,514.58,146.29Z"/><path class="cls-1" d="M235.7,51.44S421.43,44.33,431.07,39.9s12.49-9.18,9.32-9.77S344.68,8,300.53,16.81,230.3,51.56,230.3,51.56l-13.05,1S252,21.69,295.78,12.37,441.29,26.71,444.39,28.8s-.16,7.33-9.08,12.63C425.84,48.26,238,53.58,235.7,51.44Z"/><circle class="cls-2" cx="114.33" cy="135.15" r="43.7"/><circle class="cls-2" cx="466.51" cy="133.86" r="43.7"/><path class="cls-1" d="M562.31,62.41s13.47,10.07,12.93,14.76-1.57,4.69-1.57,4.69C573.62,79.29,571.75,72.13,562.31,62.41Z"/></svg>