<svg id="Dashboard_button" data-name="Dashboard button" xmlns="http://www.w3.org/2000/svg" viewBox="0 0 646.2 237.02"><defs><style>.cls-1{fill:#231f20;}.cls-2{fill:none;stroke:#231f20;stroke-miterlimit:10;stroke-width:6px;}</style></defs><title>Commercial</title><path class="cls-1" d="M9.56,146.63C2.69,133,32.71,106.72,112,97.26c0,0,105.23-77.86,140.78-85.62C299.93,4.23,592.61,0,592.61,0S299.14,9,256,17.65,133.12,99,108.64,103.74C95.72,100.61,2,120.73,9.56,146.63Z"/><path class="cls-1" d="M600,4.87l-7.41,6.32s4.52,113.62,15,116.85l24.63,7.58v46.11s7.58.63,12,0,0,17.68,0,17.68l-67,11.37s56.21-6.95,60-13.9-.63-9.47-.63-9.47l-9.47-1.26c.45-6.64,3.89-49.43-.63-48.63s-17.85-1.89-25.9-6.32S588,11.19,588,11.19Z"/><path class="cls-1" d="M603.81,4.87C620.39,38,625.5,81.5,627.18,128,621.35,76.12,614.24,31.31,603.81,4.87Z"/><path class="cls-1" d="M79.35,111.21s-17,16.57-35.77,24.24-37.9,15.83-37.9,15.83c-4.51,16.14-3.47,32.94,0,50H0c11.38,10.82,37,13.11,54.42,18.32l-3.31-12c-10.87.72-27.56-1.91-41.55-5.05C7,184.63,5.4,164.07,9.56,155c0,0,24.17-8.91,39.32-17.12S79.35,111.21,79.35,111.21Z"/><path class="cls-1" d="M125.69,107.82,564,74.76l10.11-8.3s3.16-40.11-4.42-43.9c-4.42-4.91-291.8-4.42-326.54,8.84S139,97.26,139,97.26s72.73-52,104.85-61.44,311.08-13.67,319-8.84,5.05,38.21,5.05,38.21L559,71.82Z"/><path class="cls-1" d="M151,210.78l312.25-3.16c-1.43-29.61,12.42-51.12,35.13-65.69-19.7,21.68-29.62,33.26-25.84,73.9Z"/><circle class="cls-2" cx="97.12" cy="194.87" r="39.15"/><circle class="cls-2" cx="521.05" cy="194.87" r="39.15"/></svg>