<svg id="Dashboard_button" data-name="Dashboard button" xmlns="http://www.w3.org/2000/svg" viewBox="0 0 547.78 209.56"><defs><style>.cls-1{fill:none;stroke:#231f20;stroke-miterlimit:10;stroke-width:7px;}.cls-2{fill:#231f20;}</style></defs><title>Crossover</title><circle class="cls-1" cx="93.28" cy="163.68" r="42.38"/><path class="cls-2" d="M224.73,11.43C255.66,0,407.32,5.74,498.88,16.25L510.07,9.3C453,2.5,264.35-6.27,227.54,6.57s-98.38,57.3-98.38,57.3S193.23,22.82,224.73,11.43Z"/><path class="cls-2" d="M156.41,69.5l249-11.73s-15.62-35.43-34.21-44C226.31,4.48,211.54,23,163.37,61.79c15.44-12,42.84-31.89,74.84-39.91,37.5-9.39,127-6.22,131-3.54,5.84,4,17.78,16.19,23.61,32.84Z"/><path class="cls-2" d="M46.52,137.06c6.89-30.56,92.34-59.21,109.89,26.3,79,4.9,149.81,4.51,219.82,2.8-36.2,4.05-131.84,5.33-226.94,6.26C146.61,100,67.6,98.62,46.52,137.06Z"/><path class="cls-2" d="M497.48,20.44s29.23,25.25,36.22,38,1.69,47.35,1.69,47.35,8,6.71,10.78,9.66c4.54,4.8-1.28,29.15-8.44,32.66s-10,1.56-12.6,4.26-3.27,4.71-3.3,7.18-41.31,1.63-41.31,1.63,27.59-2.62,31.81-5.34,2.24-7.94,5.94-8.91,12.18-.34,17.24-3.56,9.18-22.72,8.15-26.21c-3.59-3.42-10.66-6.1-12.93-9.45-.12-8.28,5.28-34.82-.79-48.37S497.48,20.44,497.48,20.44Z"/><path class="cls-2" d="M486.78,15.85s-64.73-4.59-73,0C410.6,22.27,445.29,52.21,461,54.29s57.28,0,55.5-1.19-38,2.87-55.82-2.38-38-24.05-38-30.29S486.78,15.85,486.78,15.85Z"/><circle class="cls-1" cx="431.93" cy="163.68" r="42.38"/><path class="cls-2" d="M527.42,59.34s-27.49-2.35-34,0c3.56,5.9,11.07,11,21.47,13.71,6.82,1.3,12.95,21,12.95,21-.1.83.55-17.56-3.76-21.06s-9.82-4.81-16.17-9.2C501,59.89,527.42,59.34,527.42,59.34Z"/><path class="cls-2" d="M121.11,64.19c-123.36,6.42-100.7,42-107.53,47.57-7.32,6-14.13,11.49-6.57,54.48,6.13,2.23,9,1.65,11.91,3.27,5.51,13.81,7.84,11.12,24.57,15.45.89.34-13.71,1.88-20-1.31-4.8-2.45-7.45-11.24-7.45-11.24L4.45,168s-12.29-46.71,4-57.38C13.11,74.17,46.52,67.15,121.11,64.19Z"/><path class="cls-2" d="M33.55,85.5c2.24,0,22.77-2.24,29.48-2.24s-3.73,8.61-12.13,11.2S32.43,98,30.56,100.72s-3.36,6.29-9.33,8.67-7.66,2.37-7.66,2.37,6.25-5.08,9.15-5.08,3-6.49,6-9.17,18.47-1.37,27.43-10.7C53.33,81.82,33.55,85.5,33.55,85.5Z"/></svg>